<svg width="16" height="15" viewBox="0 0 16 15" fill="none" xmlns="http://www.w3.org/2000/svg">
<path opacity="0.5" d="M14.3 7.41212C12.4411 6.60227 11.4846 4.52736 12.076 2.5879C12.1223 2.44417 12.1515 2.29561 12.163 2.14503C12.2219 1.26022 11.6912 0.442211 10.8591 0.135511C10.0271 -0.171189 9.0924 0.106749 8.56296 0.818129C8.47416 0.940029 8.39998 1.07175 8.34196 1.21095C7.5321 3.0698 5.45744 4.02641 3.51798 3.43507C3.37426 3.38871 3.22557 3.35935 3.07499 3.34791C2.19017 3.28898 1.37217 3.81983 1.06547 4.65187C0.758764 5.48392 1.03658 6.41857 1.74796 6.94801C1.8698 7.0369 2.00172 7.11103 2.14097 7.16896C3.99982 7.97881 4.95631 10.0535 4.36497 11.9929C4.31867 12.1367 4.2895 12.2855 4.27799 12.436C4.21906 13.3209 4.74978 14.1389 5.58182 14.4456C6.41387 14.7523 7.34853 14.4743 7.87797 13.763C7.96718 13.6411 8.04168 13.5094 8.09995 13.3701C8.9098 11.5113 10.9845 10.5547 12.924 11.146C13.0677 11.1923 13.2164 11.2214 13.367 11.2329C14.2518 11.2919 15.0697 10.7613 15.3764 9.92921C15.6831 9.09716 15.4053 8.16251 14.6939 7.63307C14.5718 7.54416 14.4395 7.47003 14.3 7.41212Z" fill="#4D8AF0"/>
</svg>
