<svg width="354" height="276" viewBox="0 0 354 276" fill="none" xmlns="http://www.w3.org/2000/svg">
<path opacity="0.136" d="M177.063 214.04C274.433 214.04 353.363 220.169 353.363 227.729C353.363 235.289 274.436 241.419 177.063 241.419C79.6902 241.419 0.763184 235.29 0.763184 227.729C0.763184 220.168 79.6972 214.04 177.063 214.04Z" fill="#584DFC"/>
<path opacity="0.587" d="M238.047 275.851C264.395 275.851 285.753 272.136 285.753 267.554C285.753 262.972 264.395 259.257 238.047 259.257C211.7 259.257 190.341 262.972 190.341 267.554C190.341 272.136 211.7 275.851 238.047 275.851Z" fill="#DEDBFF"/>
<path d="M213.078 228.145L139.159 227.195L139.379 225.295L142.951 194.021H207.868L212.643 225.295L213.008 227.668L213.078 228.145Z" fill="#D0D2D5"/>
<path opacity="0.1" d="M213.009 227.672H176.12L139.159 227.195L139.379 225.295H212.642L213.009 227.672Z" fill="black"/>
<path d="M224.926 225.776H126.839V228.145H224.926V225.776Z" fill="#D0D2D5"/>
<path d="M318.507 6.189C318.518 2.78584 315.771 0.0165317 312.368 0H38.4463C36.81 0.00793671 35.2439 0.665645 34.0926 1.8284C32.9412 2.99116 32.299 4.5637 32.3072 6.2V172.234H318.507V6.189Z" fill="#3F3D56"/>
<path d="M32.3071 170.574V190.021C32.3071 193.412 35.0557 196.16 38.4461 196.16H312.368C315.758 196.16 318.507 193.411 318.507 190.021V170.574H32.3071Z" fill="#D0D2D5"/>
<path d="M308.082 10.4121H44.1543V159.673H308.082V10.4121Z" fill="white"/>
<path d="M176.831 188.781C178.795 188.783 180.65 187.882 181.863 186.338C182.046 186.106 182.213 185.862 182.363 185.608L178.849 185.015L182.649 185.04C183.384 183.44 183.427 181.608 182.769 179.975L177.679 182.613L182.379 179.162C181.185 177.077 178.925 175.837 176.526 175.949C174.126 176.061 171.992 177.508 170.998 179.695C170.004 181.882 170.319 184.441 171.813 186.322C173.021 187.872 174.876 188.779 176.841 188.782L176.831 188.781Z" fill="#584DFC"/>
<path opacity="0.1" d="M183.227 196.157L212.717 225.776L208.191 196.157H183.227Z" fill="black"/>
<path opacity="0.1" d="M308.162 10.4292H43.9473V19.1492H308.162V10.4292Z" fill="#444053"/>
<path opacity="0.3" d="M214.709 11.9468H136.263C135.943 11.9468 135.683 12.2065 135.683 12.5268V16.6728C135.683 16.9931 135.943 17.2528 136.263 17.2528H214.709C215.029 17.2528 215.289 16.9931 215.289 16.6728V12.5268C215.289 12.2065 215.029 11.9468 214.709 11.9468Z" fill="#584DFC"/>
<path d="M212.924 15.15H212.724L212.654 15.088C212.895 14.7979 213.027 14.4324 213.027 14.055C213.02 13.1901 212.315 12.4939 211.45 12.4991C210.585 12.5042 209.887 13.2088 209.891 14.0737C209.895 14.9386 210.598 15.6372 211.463 15.635C211.841 15.6338 212.206 15.5005 212.496 15.258L212.567 15.32V15.515L213.782 16.73L214.143 16.365L212.924 15.15ZM211.468 15.15C210.95 15.1483 210.505 14.7812 210.405 14.2729C210.305 13.7647 210.578 13.2564 211.057 13.0585C211.535 12.8606 212.087 13.028 212.375 13.4585C212.663 13.889 212.608 14.463 212.242 14.83C212.036 15.0346 211.758 15.1496 211.468 15.15Z" fill="#3F3D56"/>
<path opacity="0.8" d="M48.6971 16.3859C49.5791 16.3859 50.2941 15.6709 50.2941 14.7889C50.2941 13.9069 49.5791 13.1919 48.6971 13.1919C47.8151 13.1919 47.1001 13.9069 47.1001 14.7889C47.1001 15.6709 47.8151 16.3859 48.6971 16.3859Z" fill="#FA5959"/>
<path opacity="0.8" d="M53.0902 16.3859C53.9722 16.3859 54.6872 15.6709 54.6872 14.7889C54.6872 13.9069 53.9722 13.1919 53.0902 13.1919C52.2082 13.1919 51.4932 13.9069 51.4932 14.7889C51.4932 15.6709 52.2082 16.3859 53.0902 16.3859Z" fill="#FED253"/>
<path opacity="0.8" d="M57.4871 16.3859C58.3691 16.3859 59.0841 15.6709 59.0841 14.7889C59.0841 13.9069 58.3691 13.1919 57.4871 13.1919C56.6051 13.1919 55.8901 13.9069 55.8901 14.7889C55.8901 15.6709 56.6051 16.3859 57.4871 16.3859Z" fill="#8CCF4D"/>
<path d="M190.101 74.4579C186.48 69.6459 181.232 66.6089 175.391 66.6089C169.55 66.6089 164.303 69.6459 160.681 74.4579C163.116 80.4412 168.932 84.3537 175.391 84.3537C181.851 84.3537 187.667 80.4412 190.101 74.4579Z" fill="#584DFC"/>
<path d="M158.768 77.2741C158.51 77.1631 158.266 77.0239 158.038 76.8591C157.696 76.5771 157.423 76.2212 157.238 75.8181C157.897 74.4662 157.444 72.8356 156.184 72.0161C154.923 71.1966 153.249 71.4451 152.281 72.5956C151.313 73.7461 151.354 75.4378 152.376 76.5401C152.584 76.7608 152.822 76.9519 153.081 77.1081C153.419 77.3037 153.694 77.5917 153.873 77.9381C154.213 78.6235 154.68 79.2375 155.25 79.7471C155.836 80.2489 156.468 80.6933 157.138 81.0741C156.216 83.6852 155.692 86.4207 155.586 89.1881C154.514 89.2061 153.449 89.3779 152.425 89.6981C151.901 89.8611 151.407 90.1076 150.961 90.4281C150.842 90.4135 150.721 90.4052 150.6 90.4031C149.091 90.4029 147.819 91.5305 147.638 93.0293C147.458 94.5282 148.425 95.9256 149.892 96.2839C151.358 96.6422 152.861 95.8483 153.392 94.4351C153.632 93.7645 154.226 93.284 154.931 93.1901C155.186 93.1593 155.442 93.1426 155.698 93.1401C156.055 97.0437 157.266 100.821 159.245 104.204C157.68 105.302 156.52 106.886 155.945 108.709C155.86 108.756 155.781 108.813 155.709 108.879C155.584 108.977 155.468 109.086 155.361 109.203C154.379 110.285 154.327 111.919 155.238 113.061C156.148 114.204 157.753 114.517 159.027 113.8C160.3 113.084 160.865 111.549 160.361 110.178C160.084 109.442 160.275 108.612 160.846 108.071C161.07 107.856 161.305 107.654 161.551 107.465C164.915 111.393 168.918 113.911 173.917 114.21V87.5581C167.4 87.0643 161.633 83.1496 158.768 77.2741ZM200.181 90.4321C200.061 90.4338 199.94 90.4422 199.82 90.4571C199.371 90.1437 198.877 89.8978 198.356 89.7271C197.333 89.4058 196.268 89.2341 195.195 89.2171C195.08 86.4522 194.558 83.7194 193.644 81.1071C194.315 80.7262 194.947 80.2819 195.532 79.7801C196.121 79.2404 196.605 78.5962 196.959 77.8801C197.125 77.5698 197.381 77.3168 197.693 77.1541C199.104 76.3608 199.623 74.586 198.862 73.1576C198.101 71.7293 196.338 71.1704 194.893 71.8993C193.448 72.6282 192.849 74.3779 193.545 75.8391C193.364 76.244 193.09 76.6006 192.745 76.8801C192.513 77.0723 192.269 77.251 192.015 77.4151C189.141 83.2553 183.376 87.1252 176.882 87.5741V114.252C181.86 113.952 185.888 111.423 189.248 107.507C189.509 107.714 189.729 107.901 189.916 108.075C190.512 108.627 190.718 109.482 190.439 110.245C189.938 111.615 190.502 113.146 191.773 113.863C193.043 114.58 194.646 114.27 195.559 113.132C196.472 111.994 196.426 110.363 195.45 109.278C195.343 109.16 195.227 109.052 195.101 108.954C194.964 108.846 194.865 108.784 194.865 108.784C194.293 106.954 193.125 105.368 191.546 104.279C193.526 100.896 194.737 97.1186 195.093 93.2151C195.339 93.2181 195.584 93.2348 195.827 93.2651C196.548 93.3572 197.161 93.8343 197.427 94.5101C197.938 95.8085 199.282 96.5784 200.661 96.3624C202.039 96.1465 203.083 95.0026 203.172 93.6101C203.214 92.7888 202.92 91.9859 202.357 91.3863C201.794 90.7867 201.012 90.4422 200.189 90.4321H200.181Z" fill="#584DFC"/>
<path d="M265.164 262.716C264.924 262.334 264.619 261.995 264.264 261.716C262.552 259.868 261.467 257.526 261.164 255.025C260.869 252.54 260.437 250.074 259.87 247.637C259.48 246.4 258.992 245.196 258.41 244.037C257.995 243.149 257.472 241.411 256.71 240.789C256.561 240.66 256.381 240.573 256.187 240.536C255.829 239.774 255.319 239.093 254.687 238.536C253.501 237.462 252.053 236.607 251.26 235.217C251.043 234.735 250.775 234.277 250.46 233.852C249.925 233.263 249.079 233.022 248.585 232.4C247.942 231.6 248.085 230.442 248.17 229.417C248.255 228.392 248.17 227.164 247.282 226.625C246.751 226.297 246.067 226.33 245.515 226.04C244.719 225.517 244.279 224.594 244.374 223.646C244.391 222.713 244.681 221.804 244.756 220.871C244.988 217.901 243.03 214.947 243.785 212.071C244.164 211.011 244.642 209.988 245.212 209.018C245.382 208.679 245.521 208.327 245.627 207.964C246.922 208.477 248.282 208.805 249.668 208.939C247.382 203.812 247.963 197.855 246.897 192.346L247.034 192.159C248.111 190.739 248.723 189.02 248.785 187.239C248.785 185.19 247.827 183.273 247.395 181.265C247.026 179.56 247.042 177.776 246.565 176.1C246.235 175.057 245.795 174.051 245.254 173.1C244.737 172.141 244.194 171.196 243.624 170.267C243.091 168.508 242.558 166.749 242.024 164.99C241.402 162.483 240.401 160.086 239.058 157.88C238.527 157.1 238.365 155.515 237.548 155.043C236.885 154.7 236.132 154.568 235.391 154.666C234.207 154.14 233.347 153.077 233.08 151.808C233.066 151.529 233.094 151.249 233.163 150.978H233.304C235.129 150.812 236.054 149.202 237.004 147.792C238.539 145.51 237.954 142.424 237.004 139.827C236.769 139.007 236.342 138.255 235.759 137.633C234.427 136.388 232.32 136.662 230.603 136.061C230.026 135.861 229.487 135.561 228.903 135.418C227.737 135.232 226.542 135.456 225.522 136.053C224.513 136.647 223.473 137.189 222.407 137.675C221.307 138.09 219.959 138.417 219.69 139.542C219.615 139.921 219.646 140.313 219.781 140.675C220.034 141.396 220.477 142.035 221.063 142.525C220.118 144.471 220.074 146.733 220.941 148.715C221.809 150.697 223.501 152.199 225.572 152.825C225.887 153.331 226.182 153.845 226.451 154.372C227 155.279 227.253 156.335 227.173 157.392C226.873 157.711 226.596 158.05 226.343 158.408C225.23 160.115 224.39 161.987 223.854 163.954C223.02 166.433 222.352 168.965 221.854 171.533C220.726 173.625 219.73 175.787 218.871 178.004C217.557 178.005 216.248 177.829 214.98 177.481L211.48 176.689C210.24 176.508 209.059 176.034 208.037 175.308C207.531 174.893 207.137 174.341 206.622 173.931C206.107 173.521 205.075 173.039 204.511 173.379C204.408 173.442 204.312 173.515 204.225 173.599C203.711 172.558 203.225 171.525 202.625 170.517C201.855 169.036 200.489 167.956 198.871 167.547C197.883 167.388 196.871 167.623 196.054 168.202C195.108 168.874 194.515 170.276 195.224 171.222C195.402 171.432 195.595 171.629 195.801 171.811C196.282 172.364 196.711 172.96 197.083 173.591C198.422 175.469 200.423 176.768 202.683 177.225L202.538 177.64C202.243 178.503 201.617 179.54 201.775 180.44L217.348 185.771C218.347 186.176 219.408 186.411 220.484 186.464C220.905 186.46 221.323 186.405 221.729 186.298V187.128C221.771 192.6 220.899 198.034 220.738 203.501C220.604 204.497 220.828 205.508 221.369 206.355C222.169 207.149 223.327 207.464 224.418 207.185C224.679 207.141 224.937 207.083 225.19 207.011C225.561 208.387 225.828 209.789 225.99 211.205L227.019 218.614C227.152 219.373 227.206 220.144 227.181 220.914C227.061 222.652 226.144 224.208 225.481 225.814C224.818 227.42 224.423 229.34 225.294 230.842C225.568 231.307 225.945 231.701 226.194 232.182C226.506 232.927 226.647 233.731 226.609 234.538C226.676 236.772 226.737 239.01 226.791 241.25C226.611 241.219 226.425 241.254 226.268 241.35C225.405 242.022 225.501 245.22 225.438 246.212C225.372 247.871 225.438 249.564 225.347 251.24C225.239 253.499 224.876 255.738 224.264 257.915C224.115 258.622 223.788 259.28 223.314 259.827C222.829 260.249 222.251 260.549 221.626 260.702C219.559 261.349 217.398 261.644 215.233 261.573C214.361 261.464 213.475 261.539 212.633 261.793C211.772 262.086 211.267 262.978 211.459 263.867C211.82 264.522 212.443 264.991 213.172 265.157C214.755 265.714 216.283 266.417 217.735 267.257C218.295 267.638 218.884 267.972 219.498 268.257C220.087 268.468 220.696 268.618 221.315 268.705L228.67 269.974C230.176 270.231 231.989 270.389 232.947 269.144C233.409 268.419 233.61 267.559 233.515 266.705C233.334 265.042 233.282 263.368 233.357 261.698C233.521 260.717 233.78 259.754 234.129 258.823C234.863 256.646 235.598 254.471 236.336 252.298C237.15 250.138 237.743 247.902 238.107 245.623C238.324 244.816 238.122 243.955 237.568 243.329C237.408 243.197 237.221 243.101 237.02 243.047C236.995 241.047 236.734 239.047 236.846 237.047C236.875 236.547 236.925 236.047 236.966 235.547C237.351 235.912 237.695 236.318 237.991 236.758C238.7 237.87 238.962 239.338 240.044 240.077C240.965 240.708 242.33 240.677 242.977 241.587C243.185 241.937 243.342 242.316 243.442 242.711C243.818 243.689 244.382 244.584 245.101 245.345C245.349 246.255 245.692 247.137 246.126 247.975C246.738 249.266 247.346 250.554 247.951 251.837C248.574 253.222 249.266 254.575 250.025 255.89C250.605 256.718 251.073 257.619 251.415 258.57C251.861 260.702 251.146 262.911 249.536 264.378C247.943 265.789 246.087 266.872 244.073 267.564C243.867 267.634 243.677 267.747 243.517 267.896C243.347 268.097 243.257 268.354 243.264 268.618C243.339 269.595 244.014 270.423 244.956 270.692C245.881 270.939 246.85 270.973 247.789 270.792C253.122 270.273 258.306 268.742 263.063 266.279C263.764 265.947 264.386 265.467 264.884 264.873C265.366 264.259 265.473 263.432 265.164 262.716Z" fill="url(#paint0_linear_105_451)"/>
<path d="M242.759 169.693C243.644 171.051 244.474 172.442 245.248 173.866C245.791 174.808 246.231 175.805 246.563 176.84C247.044 178.499 247.032 180.271 247.393 181.963C247.808 183.954 248.779 185.854 248.779 187.895C248.716 189.663 248.104 191.368 247.028 192.773C245.956 194.166 244.728 195.432 243.369 196.548C240.237 188.433 238.487 179.85 238.192 171.156C238.079 169.952 238.211 168.738 238.582 167.588C238.852 166.883 240.146 164.95 240.982 165.709C241.282 165.987 241.364 167.24 241.55 167.659C241.9 168.367 242.305 169.047 242.761 169.692L242.759 169.693Z" fill="#2F2E41"/>
<path opacity="0.1" d="M242.759 169.693C243.644 171.051 244.474 172.442 245.248 173.866C245.791 174.808 246.231 175.805 246.563 176.84C247.044 178.499 247.032 180.271 247.393 181.963C247.808 183.954 248.779 185.854 248.779 187.895C248.716 189.663 248.104 191.368 247.028 192.773C245.956 194.166 244.728 195.432 243.369 196.548C240.237 188.433 238.487 179.85 238.192 171.156C238.079 169.952 238.211 168.738 238.582 167.588C238.852 166.883 240.146 164.95 240.982 165.709C241.282 165.987 241.364 167.24 241.55 167.659C241.9 168.367 242.305 169.047 242.761 169.692L242.759 169.693Z" fill="black"/>
<path d="M133.393 113.095C130.112 116.372 129.718 117.816 127.747 118.467C125.776 119.118 118.687 122.79 120.915 126.859L126.905 130.816L127.079 130.932L127.996 133.686L118.936 149.815C118.936 149.815 104.002 142.987 102.536 153.088C101.07 163.189 102.001 165.948 101.607 171.341C101.213 176.734 101.736 178.294 100.421 178.294C99.1061 178.294 98.5871 174.751 98.5871 174.751C98.5871 174.751 98.5041 174.589 98.3591 174.286C96.4051 170.225 83.1431 140.411 104.386 119.918C104.386 119.918 114.226 119.271 116.594 107.987C118.228 100.187 123.945 100.86 127.745 102.449C128.98 102.932 130.131 103.607 131.155 104.449C132.076 105.32 132.896 106.293 133.598 107.349C134.683 109.067 135.272 111.212 133.393 113.095Z" fill="#D0D2D5"/>
<path opacity="0.1" d="M127.079 130.938L127.996 133.693L118.936 149.822C118.936 149.822 104.002 142.994 102.536 153.095C101.07 163.196 102.001 165.955 101.607 171.348C101.213 176.741 101.736 178.301 100.421 178.301C99.1061 178.301 98.5871 174.758 98.5871 174.758C98.5871 174.758 98.5041 174.596 98.3591 174.293C97.6991 169.249 94.3591 139.742 106.477 141.31C106.477 141.31 116.313 145.91 117.885 144.073C119.13 142.621 124.655 134.273 126.903 130.844L127.079 130.938Z" fill="black"/>
<path opacity="0.1" d="M133.6 107.333L127.61 114.14C127.61 114.14 120.653 123.449 119.21 123.055C118.778 122.961 118.337 122.91 117.895 122.902C116.912 122.827 116.06 122.193 115.706 121.273C115.351 120.353 115.558 119.311 116.236 118.596C118.609 116.107 122.981 111.382 123.267 110.333C123.553 109.284 126.337 104.683 127.731 102.433C128.966 102.916 130.117 103.591 131.141 104.433C132.068 105.304 132.893 106.277 133.6 107.333Z" fill="black"/>
<path d="M303.084 205.274C302.068 207.307 296.862 214.931 294.584 218.262L293.518 219.83C293.518 219.83 293.103 222.584 286.304 219.17C279.505 215.756 119.755 148.348 119.755 148.348L118.672 145.096L126.554 133.296L301.645 200.941C301.645 200.941 304.399 202.646 303.084 205.274Z" fill="#454B69"/>
<path opacity="0.1" d="M294.584 218.26L293.518 219.828C293.518 219.828 293.103 222.582 286.304 219.168C279.505 215.754 119.755 148.348 119.755 148.348L118.672 145.096L294.584 218.26Z" fill="black"/>
<path d="M198.226 174.229C196.606 173.851 194.902 174.185 193.543 175.146C192.781 175.791 192.299 176.707 192.199 177.701C192.091 178.85 192.759 180.215 193.912 180.301C194.19 180.304 194.467 180.286 194.742 180.247C195.471 180.244 196.198 180.305 196.916 180.429C199.783 180.699 202.602 179.56 204.478 177.376C205.469 176.131 204.163 175.592 202.993 175.343C201.392 175.004 199.828 174.486 198.226 174.229Z" fill="#FBBEBE"/>
<path d="M225.971 211.692L227 219.001C227.131 219.756 227.184 220.522 227.158 221.287C227.038 223.008 226.121 224.552 225.458 226.145C224.795 227.738 224.396 229.645 225.271 231.123C225.541 231.583 225.918 231.978 226.163 232.455C226.474 233.193 226.616 233.99 226.578 234.79L226.86 245.161C230.063 245.379 233.277 245.361 236.476 245.107C236.601 245.113 236.725 245.075 236.824 244.999C236.909 244.892 236.951 244.758 236.944 244.622C237.085 242.195 236.662 239.764 236.799 237.338C236.849 236.45 236.973 235.567 236.99 234.675C237.04 231.062 235.256 227.523 235.795 223.952C235.965 223.051 236.186 222.16 236.459 221.285C238.159 215.063 237.803 208.525 237.426 202.099C237.433 201.996 237.403 201.893 237.343 201.809C237.282 201.748 237.204 201.706 237.119 201.689C233.436 200.584 229.446 201.342 226.425 203.722C225.973 204.087 224.832 204.44 224.533 204.875C224.118 205.481 224.662 206.086 224.902 206.729C225.436 208.34 225.794 210.004 225.971 211.692Z" fill="#3F3D56"/>
<path opacity="0.1" d="M225.971 211.692L227 219.001C227.131 219.756 227.184 220.522 227.158 221.287C227.038 223.008 226.121 224.552 225.458 226.145C224.795 227.738 224.396 229.645 225.271 231.123C225.541 231.583 225.918 231.978 226.163 232.455C226.474 233.193 226.616 233.99 226.578 234.79L226.86 245.161C230.063 245.379 233.277 245.361 236.476 245.107C236.601 245.113 236.725 245.075 236.824 244.999C236.909 244.892 236.951 244.758 236.944 244.622C237.085 242.195 236.662 239.764 236.799 237.338C236.849 236.45 236.973 235.567 236.99 234.675C237.04 231.062 235.256 227.523 235.795 223.952C235.965 223.051 236.186 222.16 236.459 221.285C238.159 215.063 237.803 208.525 237.426 202.099C237.433 201.996 237.403 201.893 237.343 201.809C237.282 201.748 237.204 201.706 237.119 201.689C233.436 200.584 229.446 201.342 226.425 203.722C225.973 204.087 224.832 204.44 224.533 204.875C224.118 205.481 224.662 206.086 224.902 206.729C225.436 208.34 225.794 210.004 225.971 211.692Z" fill="black"/>
<path d="M245.206 209.49C244.638 210.453 244.16 211.467 243.779 212.518C243.024 215.376 244.979 218.326 244.746 221.254C244.671 222.179 244.385 223.079 244.364 224.004C244.276 224.948 244.715 225.863 245.505 226.385C246.057 226.667 246.75 226.638 247.268 226.962C248.143 227.497 248.243 228.713 248.156 229.733C248.069 230.753 247.924 231.894 248.571 232.691C249.065 233.309 249.911 233.55 250.442 234.135C250.758 234.555 251.026 235.008 251.242 235.487C252.034 236.873 253.482 237.719 254.669 238.806C255.856 239.893 256.859 241.486 256.328 242.992C255.808 244.056 254.899 244.88 253.789 245.292C251.867 246.242 249.838 246.959 247.745 247.428C247.521 247.496 247.283 247.509 247.052 247.465C246.819 247.38 246.61 247.237 246.446 247.05C245.131 245.944 244.087 244.552 243.393 242.98C243.293 242.589 243.136 242.214 242.928 241.868C242.281 240.96 240.916 240.993 239.995 240.368C238.916 239.634 238.655 238.178 237.95 237.078C237.167 236.13 236.336 235.222 235.461 234.357C234.192 232.747 233.881 230.599 232.972 228.757C232.586 227.977 232.093 227.247 231.786 226.434C231.477 225.461 231.286 224.453 231.218 223.434C230.633 218.589 229.144 213.71 230.081 208.915C230.288 207.861 230.608 206.841 230.741 205.754C230.969 203.875 230.608 201.954 230.886 200.075C230.9 199.598 231.131 199.154 231.512 198.868C231.737 198.767 231.981 198.718 232.226 198.723C234.686 198.592 237.151 198.647 239.602 198.889C240.847 199.009 242.24 199.262 242.987 200.279C243.476 201.24 243.749 202.297 243.787 203.374C244.085 204.493 244.634 205.53 245.392 206.406C246.09 207.428 245.717 208.436 245.206 209.49Z" fill="#3F3D56"/>
<path d="M235.636 243.199C236.289 243.106 236.954 243.238 237.523 243.572C238.07 244.194 238.272 245.048 238.062 245.849C237.695 248.116 237.1 250.339 236.287 252.486L234.08 258.961C233.731 259.885 233.472 260.841 233.308 261.815C233.232 263.476 233.285 265.14 233.466 266.793C233.544 267.64 233.343 268.49 232.894 269.212C231.956 270.419 230.127 270.278 228.621 270.042L221.274 268.797C220.654 268.715 220.045 268.566 219.457 268.353C218.844 268.07 218.254 267.739 217.694 267.362C216.24 266.532 214.713 265.837 213.131 265.288C212.442 265.031 211.671 264.703 211.422 264.01C211.23 263.121 211.735 262.229 212.596 261.936C213.438 261.683 214.323 261.606 215.196 261.712C217.358 261.781 219.517 261.489 221.584 260.849C222.206 260.697 222.784 260.398 223.268 259.978C223.76 259.425 224.095 258.751 224.239 258.024C224.865 255.862 225.238 253.635 225.351 251.387C225.438 249.728 225.38 248.068 225.451 246.409C225.493 245.426 225.397 242.261 226.26 241.584C226.92 241.078 229.633 242.476 230.524 242.684C232.2 243.067 233.917 243.24 235.636 243.199Z" fill="#2F2E41"/>
<path d="M259.838 247.812C260.397 250.232 260.829 252.68 261.132 255.146C261.444 257.629 262.528 259.95 264.232 261.783C264.585 262.064 264.889 262.402 265.132 262.783C265.444 263.507 265.324 264.345 264.821 264.952C264.32 265.543 263.7 266.02 263 266.352C258.24 268.801 253.058 270.322 247.73 270.836C246.791 271.013 245.825 270.979 244.901 270.736C243.959 270.468 243.284 269.639 243.213 268.662C243.204 268.4 243.293 268.144 243.462 267.944C243.623 267.796 243.814 267.685 244.022 267.616C246.029 266.919 247.883 265.842 249.482 264.443C251.09 263 251.807 260.808 251.361 258.693C251.014 257.749 250.543 256.855 249.961 256.034C249.203 254.73 248.51 253.388 247.887 252.014L246.062 248.185C245.459 247.097 245.064 245.907 244.896 244.675C247.189 244.778 249.479 244.411 251.625 243.596C252.627 243.188 253.56 242.628 254.392 241.937C255.097 241.348 255.74 240.249 256.692 241.016C257.455 241.63 257.936 243.36 258.385 244.235C258.966 245.386 259.452 246.582 259.838 247.812Z" fill="#2F2E41"/>
<path d="M233.089 152.737C233.272 154.33 234.815 155.379 236.289 156.01L226.968 158.984C227.568 157.831 227.084 156.42 226.487 155.25C226.001 154.324 225.446 153.435 224.828 152.591C224.737 152.462 224.633 152.301 224.699 152.151C224.759 152.055 224.852 151.983 224.96 151.951C226.854 151 228.867 150.311 230.946 149.902C231.552 149.815 232.697 149.574 233.146 150.188C233.595 150.802 233.002 152.003 233.089 152.737Z" fill="#FBBEBE"/>
<path opacity="0.1" d="M233.089 152.737C233.272 154.33 234.815 155.379 236.289 156.01L226.968 158.984C227.568 157.831 227.084 156.42 226.487 155.25C226.001 154.324 225.446 153.435 224.828 152.591C224.737 152.462 224.633 152.301 224.699 152.151C224.759 152.055 224.852 151.983 224.96 151.951C226.854 151 228.867 150.311 230.946 149.902C231.552 149.815 232.697 149.574 233.146 150.188C233.595 150.802 233.002 152.003 233.089 152.737Z" fill="black"/>
<path d="M227.671 154.026C231.708 154.026 234.98 150.754 234.98 146.717C234.98 142.681 231.708 139.408 227.671 139.408C223.635 139.408 220.362 142.681 220.362 146.717C220.362 150.754 223.635 154.026 227.671 154.026Z" fill="#FBBEBE"/>
<path d="M221.338 206.868C222.14 207.657 223.296 207.972 224.387 207.698C226.938 207.283 229.025 205.404 231.522 204.728C234.584 203.898 237.822 204.964 240.715 206.271C243.608 207.578 246.481 209.171 249.642 209.399C246.784 203.027 248.418 195.361 245.684 188.935C245.016 187.363 244.084 185.849 243.934 184.148C243.747 182.037 244.801 180 244.963 177.901C244.99 176.019 244.666 174.148 244.009 172.384L242.009 165.813C241.387 163.325 240.388 160.947 239.047 158.761C238.512 157.985 238.347 156.413 237.537 155.944C235.762 154.919 233.069 156.21 231.144 156.28C229.181 156.516 227.423 157.61 226.344 159.267C225.23 160.958 224.39 162.814 223.855 164.767C222.863 167.635 222.122 170.583 221.64 173.579C221.578 174.027 221.524 174.479 221.482 174.927C221.067 179.187 221.673 183.473 221.706 187.754V187.783C221.748 193.213 220.876 198.61 220.715 204.036C220.592 205.024 220.812 206.024 221.338 206.868Z" fill="#2F2E41"/>
<path opacity="0.1" d="M221.717 187.757C223.163 187.312 224.48 186.523 225.554 185.457C226.517 184.596 227.372 183.623 228.101 182.557C229.019 181.123 229.756 179.58 230.295 177.965C231.83 173.645 232.804 169.146 233.195 164.578C233.437 163.355 233.223 162.087 232.595 161.01C231.737 159.907 230.232 159.543 228.965 160.13C228.029 160.704 227.268 161.523 226.765 162.499C225.534 164.295 224.497 166.216 223.674 168.232C223.342 169.132 223.097 170.066 222.774 170.974C222.445 171.87 222.065 172.747 221.637 173.6C221.575 174.048 221.521 174.5 221.479 174.948C221.097 179.211 221.686 183.476 221.717 187.757Z" fill="black"/>
<path d="M232.58 160.208C233.207 161.283 233.422 162.549 233.186 163.771C232.796 168.339 231.821 172.838 230.286 177.158C229.751 178.787 229.014 180.342 228.091 181.788C227.361 182.853 226.506 183.826 225.544 184.688C224.218 186.09 222.426 186.962 220.504 187.14C219.428 187.089 218.368 186.858 217.368 186.456L201.791 181.156C201.633 180.268 202.26 179.231 202.554 178.377L203.384 175.917C203.542 175.209 203.941 174.579 204.512 174.133C205.13 173.764 206.112 174.27 206.623 174.68C207.134 175.09 207.523 175.63 208.033 176.049C209.057 176.769 210.237 177.238 211.476 177.418L214.976 178.202C216.244 178.549 217.553 178.723 218.867 178.72C219.842 175.742 221.696 173.12 222.746 170.166C223.07 169.266 223.314 168.328 223.646 167.424C224.469 165.408 225.505 163.486 226.737 161.691C227.24 160.715 228.001 159.896 228.937 159.322C230.209 158.729 231.723 159.097 232.58 160.208Z" fill="#2F2E41"/>
<path d="M230.003 148.369C229.948 147.888 229.798 147.423 229.563 147C229.313 146.565 228.809 146.343 228.318 146.452C227.588 146.68 227.343 147.809 226.58 147.846C226.066 147.871 225.696 147.346 225.535 146.859C225.448 146.347 225.229 145.867 224.9 145.465C224.633 145.265 224.326 145.123 224 145.05C222.229 144.49 220.4 143.457 219.81 141.694C219.67 141.336 219.636 140.946 219.71 140.57C219.98 139.454 221.369 139.118 222.427 138.716C223.485 138.314 224.501 137.625 225.538 137.102C226.559 136.509 227.754 136.288 228.919 136.476C229.498 136.658 230.067 136.87 230.624 137.111C232.341 137.711 234.445 137.43 235.776 138.671C236.359 139.286 236.785 140.031 237.021 140.845C237.95 143.425 238.539 146.487 237 148.752C236.05 150.152 235.129 151.752 233.3 151.917C231.182 152.094 230.339 150.169 230.003 148.369Z" fill="#2F2E41"/>
<g opacity="0.1">
<path d="M226.76 145.98C226.672 145.469 226.455 144.989 226.129 144.586C225.862 144.385 225.555 144.244 225.229 144.171C223.453 143.611 221.629 142.578 221.035 140.815C220.9 140.456 220.869 140.067 220.944 139.691C220.985 139.513 221.06 139.346 221.164 139.197C220.494 139.398 219.962 139.909 219.733 140.57C219.659 140.946 219.693 141.336 219.833 141.694C220.422 143.457 222.251 144.494 224.023 145.05C224.349 145.123 224.656 145.264 224.923 145.465C225.251 145.867 225.469 146.347 225.558 146.859C225.724 147.353 226.089 147.871 226.603 147.846C227.117 147.821 227.366 147.352 227.694 146.958C227.227 146.828 226.868 146.453 226.76 145.98Z" fill="black"/>
<path d="M234.525 151.024C232.393 151.224 231.551 149.278 231.206 147.49C231.161 147.01 231.02 146.545 230.791 146.121C230.54 145.687 230.036 145.465 229.546 145.573C229.168 145.756 228.85 146.044 228.629 146.403C229.015 146.44 229.362 146.655 229.567 146.984C229.802 147.407 229.952 147.872 230.007 148.353C230.343 150.141 231.185 152.086 233.326 151.887C234.172 151.793 234.953 151.388 235.516 150.75C235.204 150.896 234.869 150.988 234.525 151.024Z" fill="black"/>
</g>
<defs>
<linearGradient id="paint0_linear_105_451" x1="227.238" y1="270.771" x2="227.238" y2="134.541" gradientUnits="userSpaceOnUse">
<stop stop-color="#808080" stop-opacity="0.251"/>
<stop offset="0.54" stop-color="#808080" stop-opacity="0.122"/>
<stop offset="1" stop-color="#808080" stop-opacity="0.102"/>
</linearGradient>
</defs>
</svg>
